<svg height="1em" style="flex:none;line-height:1" viewBox="0 0 24 24" width="1em" xmlns="http://www.w3.org/2000/svg"><title>Kiro</title><rect width="24" height="24" rx="6" fill="url(#kiro-fill)"></rect><path d="M6 5.5A1.5 1.5 0 017.5 4H9a1 1 0 011 1v5.586l5.865-6.218A1.5 1.5 0 0116.956 4H18.9a.9.9 0 01.663 1.508l-5.53 5.981 5.62 6.954A.9.9 0 0118.954 20h-1.93a1.5 1.5 0 01-1.179-.573L10 12.273V19a1 1 0 01-1 1H7.5A1.5 1.5 0 016 18.5v-13z" fill="#fff"></path><defs><linearGradient id="kiro-fill" x1="3" y1="3" x2="21" y2="21" gradientUnits="userSpaceOnUse"><stop stop-color="#FDBA74"></stop><stop offset="1" stop-color="#EA580C"></stop></linearGradient></defs></svg>
